<svg width="45" height="48" viewBox="0 0 45 48" fill="none" xmlns="http://www.w3.org/2000/svg">
<path d="M14.1667 20.6668C13.837 20.6668 13.5148 20.7646 13.2407 20.9477C12.9666 21.1308 12.753 21.3911 12.6269 21.6957C12.5007 22.0002 12.4677 22.3353 12.532 22.6586C12.5963 22.9819 12.7551 23.2789 12.9882 23.512C13.2212 23.7451 13.5182 23.9038 13.8415 23.9681C14.1648 24.0324 14.4999 23.9994 14.8045 23.8733C15.109 23.7472 15.3693 23.5335 15.5524 23.2594C15.7356 22.9854 15.8333 22.6631 15.8333 22.3335C15.8333 21.8915 15.6577 21.4675 15.3452 21.155C15.0326 20.8424 14.6087 20.6668 14.1667 20.6668ZM34.1667 14.0002H32.5V9.00016C32.5 8.55814 32.3244 8.13421 32.0118 7.82165C31.6993 7.50909 31.2754 7.3335 30.8333 7.3335H14.1667C13.7246 7.3335 13.3007 7.50909 12.9882 7.82165C12.6756 8.13421 12.5 8.55814 12.5 9.00016V14.0002H10.8333C9.50725 14.0002 8.23548 14.5269 7.29779 15.4646C6.36011 16.4023 5.83333 17.6741 5.83333 19.0002V29.0002C5.83333 30.3262 6.36011 31.598 7.29779 32.5357C8.23548 33.4734 9.50725 34.0002 10.8333 34.0002H12.5V39.0002C12.5 39.4422 12.6756 39.8661 12.9882 40.1787C13.3007 40.4912 13.7246 40.6668 14.1667 40.6668H30.8333C31.2754 40.6668 31.6993 40.4912 32.0118 40.1787C32.3244 39.8661 32.5 39.4422 32.5 39.0002V34.0002H34.1667C35.4927 34.0002 36.7645 33.4734 37.7022 32.5357C38.6399 31.598 39.1667 30.3262 39.1667 29.0002V19.0002C39.1667 17.6741 38.6399 16.4023 37.7022 15.4646C36.7645 14.5269 35.4927 14.0002 34.1667 14.0002ZM15.8333 10.6668H29.1667V14.0002H15.8333V10.6668ZM29.1667 37.3335H15.8333V30.6668H29.1667V37.3335ZM35.8333 29.0002C35.8333 29.4422 35.6577 29.8661 35.3452 30.1787C35.0326 30.4912 34.6087 30.6668 34.1667 30.6668H32.5V29.0002C32.5 28.5581 32.3244 28.1342 32.0118 27.8217C31.6993 27.5091 31.2754 27.3335 30.8333 27.3335H14.1667C13.7246 27.3335 13.3007 27.5091 12.9882 27.8217C12.6756 28.1342 12.5 28.5581 12.5 29.0002V30.6668H10.8333C10.3913 30.6668 9.96738 30.4912 9.65482 30.1787C9.34226 29.8661 9.16666 29.4422 9.16666 29.0002V19.0002C9.16666 18.5581 9.34226 18.1342 9.65482 17.8217C9.96738 17.5091 10.3913 17.3335 10.8333 17.3335H34.1667C34.6087 17.3335 35.0326 17.5091 35.3452 17.8217C35.6577 18.1342 35.8333 18.5581 35.8333 19.0002V29.0002Z" fill="#E51839"/>
</svg>
