<svg width="45" height="48" viewBox="0 0 45 48" fill="none" xmlns="http://www.w3.org/2000/svg">
<path d="M22.5 7.3335C19.2036 7.3335 15.9813 8.31098 13.2405 10.1423C10.4997 11.9737 8.36347 14.5767 7.10201 17.6221C5.84055 20.6675 5.51049 24.0187 6.15358 27.2517C6.79667 30.4847 8.38401 33.4544 10.7149 35.7853C13.0458 38.1162 16.0155 39.7035 19.2485 40.3466C22.4815 40.9897 25.8326 40.6596 28.8781 39.3982C31.9235 38.1367 34.5265 36.0005 36.3578 33.2597C38.1892 30.5188 39.1667 27.2965 39.1667 24.0002C39.1667 21.8115 38.7356 19.6442 37.898 17.6221C37.0604 15.6 35.8328 13.7627 34.2851 12.215C32.7375 10.6674 30.9002 9.43975 28.8781 8.60217C26.856 7.76459 24.6887 7.3335 22.5 7.3335ZM22.5 37.3335C19.8629 37.3335 17.2851 36.5515 15.0924 35.0864C12.8997 33.6213 11.1908 31.539 10.1816 29.1026C9.17244 26.6663 8.9084 23.9854 9.42287 21.399C9.93733 18.8125 11.2072 16.4368 13.0719 14.5721C14.9366 12.7074 17.3124 11.4375 19.8988 10.923C22.4852 10.4086 25.1661 10.6726 27.6024 11.6818C30.0388 12.6909 32.1212 14.3999 33.5863 16.5926C35.0513 18.7852 35.8333 21.3631 35.8333 24.0002C35.8333 27.5364 34.4286 30.9278 31.9281 33.4283C29.4276 35.9287 26.0362 37.3335 22.5 37.3335ZM27.6667 25.0502L24.1667 23.0335V15.6668C24.1667 15.2248 23.9911 14.8009 23.6785 14.4883C23.366 14.1758 22.942 14.0002 22.5 14.0002C22.058 14.0002 21.6341 14.1758 21.3215 14.4883C21.0089 14.8009 20.8333 15.2248 20.8333 15.6668V24.0002C20.8333 24.0002 20.8333 24.1335 20.8333 24.2002C20.8432 24.315 20.8713 24.4275 20.9167 24.5335C20.951 24.6324 20.9957 24.7274 21.05 24.8168C21.0956 24.9116 21.1515 25.001 21.2167 25.0835L21.4833 25.3002L21.6333 25.4502L25.9667 27.9502C26.2207 28.0941 26.508 28.1688 26.8 28.1668C27.169 28.1694 27.5285 28.0494 27.822 27.8257C28.1155 27.602 28.3264 27.2872 28.4218 26.9307C28.5171 26.5742 28.4914 26.1961 28.3487 25.8558C28.206 25.5155 27.9544 25.2321 27.6333 25.0502H27.6667Z" fill="#E51839"/>
</svg>
