<svg width="45" height="40" viewBox="0 0 45 40" fill="none" xmlns="http://www.w3.org/2000/svg">
<path d="M34.9901 21.7086C34.6235 21.7086 34.2401 21.5919 33.8735 21.5086C33.1309 21.345 32.4012 21.1277 31.6901 20.8586C30.9169 20.5773 30.067 20.5919 29.304 20.8996C28.5409 21.2073 27.9186 21.7863 27.5568 22.5253L27.1901 23.2753C25.5668 22.3722 24.0751 21.2507 22.7568 19.9419C21.4481 18.6236 20.3265 17.1319 19.4235 15.5086L20.1235 15.0419C20.8624 14.6801 21.4414 14.0578 21.7491 13.2948C22.0568 12.5317 22.0714 11.6818 21.7901 10.9086C21.5255 10.196 21.3083 9.4666 21.1401 8.72527C21.0568 8.3586 20.9901 7.97527 20.9401 7.59194C20.7377 6.41797 20.1228 5.35484 19.2062 4.594C18.2895 3.83316 17.1313 3.42462 15.9401 3.44194H10.9401C10.2218 3.43519 9.51054 3.58329 8.85463 3.87615C8.19873 4.16901 7.61364 4.59976 7.13917 5.13907C6.6647 5.67838 6.31201 6.31359 6.1051 7.00146C5.89819 7.68933 5.84192 8.4137 5.94012 9.12527C6.82802 16.1076 10.0168 22.5951 15.0029 27.563C19.9889 32.5309 26.488 35.6961 33.4735 36.5586H34.1068C35.3358 36.5604 36.5224 36.1095 37.4401 35.2919C37.9674 34.8203 38.3886 34.2422 38.6759 33.5958C38.9632 32.9494 39.1101 32.2493 39.1068 31.5419V26.5419C39.0864 25.3842 38.6648 24.2695 37.914 23.388C37.1632 22.5066 36.1298 21.913 34.9901 21.7086ZM35.8235 31.7086C35.8232 31.9452 35.7725 32.1791 35.6748 32.3946C35.577 32.6102 35.4346 32.8024 35.2568 32.9586C35.0711 33.1203 34.8534 33.241 34.6179 33.3128C34.3824 33.3846 34.1344 33.4059 33.8901 33.3753C27.6483 32.5749 21.8505 29.7194 17.4113 25.2591C12.9721 20.7988 10.1441 14.9875 9.37345 8.74194C9.34693 8.4978 9.37017 8.25082 9.44179 8.01592C9.5134 7.78102 9.6319 7.56308 9.79012 7.37527C9.9463 7.19749 10.1386 7.055 10.3541 6.9573C10.5696 6.85959 10.8035 6.8089 11.0401 6.8086H16.0401C16.4277 6.79998 16.8062 6.92673 17.1104 7.16705C17.4146 7.40737 17.6255 7.74622 17.7068 8.12527C17.7735 8.58082 17.8568 9.03082 17.9568 9.47527C18.1493 10.3538 18.4056 11.2172 18.7235 12.0586L16.3901 13.1419C16.1906 13.2335 16.0112 13.3635 15.862 13.5246C15.7129 13.6857 15.5971 13.8746 15.5212 14.0806C15.4454 14.2866 15.4109 14.5055 15.4199 14.7248C15.4288 14.9441 15.481 15.1595 15.5735 15.3586C17.9721 20.4965 22.1022 24.6266 27.2401 27.0253C27.6459 27.192 28.101 27.192 28.5068 27.0253C28.7146 26.9509 28.9057 26.836 29.0687 26.6872C29.2318 26.5385 29.3637 26.3588 29.4568 26.1586L30.4901 23.8253C31.3517 24.1334 32.2311 24.3894 33.1235 24.5919C33.5679 24.6919 34.0179 24.7753 34.4734 24.8419C34.8525 24.9233 35.1913 25.1342 35.4317 25.4384C35.672 25.7426 35.7987 26.121 35.7901 26.5086L35.8235 31.7086Z" fill="#E51839"/>
</svg>
