<svg width="45" height="144" viewBox="0 0 45 144" fill="none" xmlns="http://www.w3.org/2000/svg">
<path d="M22.5 5C18.9638 5 15.5724 6.40476 13.0719 8.90524C10.5714 11.4057 9.16667 14.7971 9.16667 18.3333C9.16667 27.3333 20.9167 37.5 21.4167 37.9333C21.7186 38.1915 22.1027 38.3334 22.5 38.3334C22.8973 38.3334 23.2815 38.1915 23.5833 37.9333C24.1667 37.5 35.8333 27.3333 35.8333 18.3333C35.8333 14.7971 34.4286 11.4057 31.9281 8.90524C29.4276 6.40476 26.0362 5 22.5 5ZM22.5 34.4167C18.95 31.0833 12.5 23.9 12.5 18.3333C12.5 15.6812 13.5536 13.1376 15.4289 11.2623C17.3043 9.3869 19.8478 8.33333 22.5 8.33333C25.1522 8.33333 27.6957 9.3869 29.5711 11.2623C31.4464 13.1376 32.5 15.6812 32.5 18.3333C32.5 23.9 26.05 31.1 22.5 34.4167ZM22.5 11.6667C21.1815 11.6667 19.8925 12.0577 18.7962 12.7902C17.6999 13.5227 16.8454 14.5639 16.3408 15.7821C15.8362 17.0003 15.7042 18.3407 15.9614 19.6339C16.2187 20.9271 16.8536 22.115 17.786 23.0474C18.7183 23.9797 19.9062 24.6147 21.1994 24.8719C22.4926 25.1291 23.8331 24.9971 25.0512 24.4925C26.2694 23.9879 27.3106 23.1335 28.0431 22.0371C28.7757 20.9408 29.1667 19.6519 29.1667 18.3333C29.1667 16.5652 28.4643 14.8695 27.2141 13.6193C25.9638 12.369 24.2681 11.6667 22.5 11.6667ZM22.5 21.6667C21.8407 21.6667 21.1963 21.4712 20.6481 21.1049C20.0999 20.7386 19.6727 20.218 19.4204 19.6089C19.1681 18.9999 19.1021 18.3296 19.2307 17.683C19.3593 17.0364 19.6768 16.4425 20.143 15.9763C20.6092 15.5101 21.2031 15.1927 21.8497 15.064C22.4963 14.9354 23.1665 15.0014 23.7756 15.2537C24.3847 15.506 24.9053 15.9333 25.2716 16.4814C25.6378 17.0296 25.8333 17.6741 25.8333 18.3333C25.8333 19.2174 25.4821 20.0652 24.857 20.6904C24.2319 21.3155 23.3841 21.6667 22.5 21.6667Z" fill="#E51839"/>
</svg>
