<svg width="506" height="364" viewBox="0 0 506 364" fill="none" xmlns="http://www.w3.org/2000/svg">
<rect width="506" height="364" fill="white"/>
<path d="M274 158H232C229.613 158 227.324 158.948 225.636 160.636C223.948 162.324 223 164.613 223 167V197C223 199.387 223.948 201.676 225.636 203.364C227.324 205.052 229.613 206 232 206H274C276.387 206 278.676 205.052 280.364 203.364C282.052 201.676 283 199.387 283 197V167C283 164.613 282.052 162.324 280.364 160.636C278.676 158.948 276.387 158 274 158ZM232 200C231.204 200 230.441 199.684 229.879 199.121C229.316 198.559 229 197.796 229 197V189.74L238.9 179.87C239.461 179.32 240.215 179.012 241 179.012C241.785 179.012 242.539 179.32 243.1 179.87L263.23 200H232ZM277 197C277 197.796 276.684 198.559 276.121 199.121C275.559 199.684 274.796 200 274 200H271.69L260.26 188.51L262.9 185.87C263.461 185.32 264.215 185.012 265 185.012C265.785 185.012 266.539 185.32 267.1 185.87L277 195.74V197ZM277 187.28L271.36 181.67C269.65 180.027 267.371 179.11 265 179.11C262.629 179.11 260.35 180.027 258.64 181.67L256 184.31L247.36 175.67C245.65 174.027 243.371 173.11 241 173.11C238.629 173.11 236.35 174.027 234.64 175.67L229 181.28V167C229 166.204 229.316 165.441 229.879 164.879C230.441 164.316 231.204 164 232 164H274C274.796 164 275.559 164.316 276.121 164.879C276.684 165.441 277 166.204 277 167V187.28Z" fill="black"/>
</svg>
